<svg width="494" height="507" viewBox="0 0 494 507" fill="none" xmlns="http://www.w3.org/2000/svg">
<path d="M479 253.5C479 385.59 374.765 492 247 492C119.235 492 15 385.59 15 253.5C15 121.41 119.235 15 247 15C374.765 15 479 121.41 479 253.5Z" fill="url(#paint0_linear_3_13)" stroke="black" stroke-width="30"/>
<path d="M228.62 263.859L362.885 392.5L237.268 392.5C209.996 392.5 183.338 384.424 160.664 369.295C139.526 355.19 122.738 335.546 112.107 312.568C114.157 312.442 116.543 312.277 118.87 312.006C126.382 311.133 136.766 308.879 145.037 300.514C153.448 292.006 157.546 279.401 157.546 262.546C157.546 200.61 138.103 164.808 121.074 141.845C117.316 136.778 113.699 132.366 110.663 128.663C110.354 128.287 110.052 127.918 109.756 127.557C106.386 123.441 104.134 120.606 102.669 118.274C102.364 117.79 102.135 117.389 101.963 117.066C103.92 115.133 105.123 114.145 105.763 113.665C105.998 113.727 106.296 113.81 106.664 113.924C107.836 114.285 108.964 114.686 110.471 115.222C111.575 115.614 112.881 116.079 114.558 116.653C129.581 121.8 156.276 129.099 214.983 128.598C255.047 129.101 269.146 126.212 277.004 124.388C278.822 123.966 279.4 123.835 279.794 123.776C280.769 123.968 282.89 124.693 290.035 127.648C303.822 133.351 320.675 140.402 336.077 148.971C351.77 157.703 364.338 167.154 370.891 176.947C377.022 186.111 378.603 196.775 378.163 210.125C377.966 216.098 377.389 222.199 376.764 228.809C376.685 229.649 376.604 230.497 376.524 231.355C376.192 234.902 375.861 238.579 375.606 242.333H237.268H206.153L228.62 263.859ZM109.325 305.85C109.326 305.851 109.331 305.875 109.337 305.92C109.327 305.872 109.324 305.85 109.325 305.85Z" fill="#FFA800" stroke="black" stroke-width="25"/>
<defs>
<linearGradient id="paint0_linear_3_13" x1="247" y1="0" x2="247" y2="507" gradientUnits="userSpaceOnUse">
<stop stop-color="#FFFF00"/>
<stop offset="1" stop-color="#FF9900" stop-opacity="0.49"/>
</linearGradient>
</defs>
</svg>
