<svg width="1304" height="1486" viewBox="0 0 1304 1486" fill="none" xmlns="http://www.w3.org/2000/svg">
<rect x="165" y="1251" width="740" height="138" fill="black"/>
<path d="M139 461.217V456.767L138.507 452.345L97.4037 83.9759C205.815 83.5597 296.833 82.4639 374.793 81.5254C491.198 80.124 578.49 79.0731 651.094 81.1582C779.189 84.8369 848.98 98.2195 938.37 136.163C989.859 158.018 1027.08 205.378 1051.99 270.195C1076.83 334.846 1085.5 407.539 1085.5 461.217C1085.5 520.672 1082.38 584.909 1060.07 642.754C1039.12 697.058 1000.46 747.957 921.2 781.601C835.46 817.995 697.217 833.894 534.612 838.946C427.971 842.26 318.435 840.897 213.973 839.597C188.646 839.282 163.617 838.97 139 838.73L139 461.217Z" stroke="black" stroke-width="160"/>
<path d="M133.426 455.683L133.426 451.524L132.995 447.388L96.7527 99.7516C189.756 99.328 268.068 98.3167 335.342 97.4478C438.641 96.1138 515.918 95.1158 580.4 97.0978C693.18 100.564 753.59 113.07 831.445 148.439C876.611 168.958 914.936 215.133 942.635 278.334C970.005 340.784 982 408.924 982 455.683C982 561.789 951.788 696.857 816.152 758.476C742.18 792.081 621.374 807.236 476.614 812.05C381.916 815.199 284.949 813.906 192.103 812.667C172.337 812.404 152.757 812.143 133.426 811.928L133.426 455.683Z" stroke="black" stroke-width="160"/>
<path d="M162.639 87.9999L1144.63 1406H80V87.9999H162.639Z" stroke="black" stroke-width="160"/>
<path d="M170.133 1290.59V288.46L929.375 1290.59H170.133Z" stroke="black" stroke-width="160"/>
<path d="M893.066 787.53C812.725 822.805 685.969 837.435 540.964 842.095C445.42 845.166 346.867 843.899 253.393 842.698C223.662 842.316 194.444 841.941 166 841.713L166 469.662L166 97.766C274.371 97.4967 364.131 96.4033 440.084 95.4781C545.051 94.1995 623.65 93.2421 688.563 95.2249C803.564 98.7377 867.605 111.43 950.399 147.782C1001.94 170.412 1034 218.46 1053.13 281.542C1072.26 344.605 1076 415.18 1076 469.662C1076 574.895 1045.47 720.613 893.066 787.53Z" stroke="#FFA800" stroke-width="100"/>
<path d="M833.378 754.009C758.054 787.628 638.807 801.692 501.709 806.171C411.441 809.12 318.409 807.904 230.075 806.75C202.865 806.394 176.1 806.045 150 805.824L150 450.136L150 94.6118C253.74 94.33 337.596 93.2235 407.118 92.3063C499.478 91.0876 566.536 90.2028 621.298 92.0289C718.531 95.2712 769.023 106.933 847.864 142.121C898.748 164.831 938.416 214.034 965.8 275.558C993.013 336.699 1005 403.354 1005 450.136C1005 551.423 976.005 690.351 833.378 754.009Z" stroke="#FFFF00" stroke-width="100"/>
<path d="M155.162 94L1057.83 1325H85V94H155.162Z" stroke="#FFA800" stroke-width="100"/>
<path d="M162.108 94L1111.31 1388H85V94H162.108Z" stroke="#FFA800" stroke-width="100"/>
<path d="M165 1333V262.792L962.393 1333H165Z" stroke="#FFFF00" stroke-width="100"/>
</svg>
