<svg width="1241" height="1415" viewBox="0 0 1241 1415" fill="none" xmlns="http://www.w3.org/2000/svg">
<rect x="165" y="1172" width="740" height="138" fill="black"/>
<path d="M139 461.217V456.767L138.507 452.345L97.4037 83.9759C205.815 83.5597 296.833 82.4639 374.793 81.5254C491.198 80.124 578.49 79.0731 651.094 81.1582C779.189 84.8369 848.98 98.2195 938.37 136.163C989.859 158.018 1027.08 205.378 1051.99 270.195C1076.83 334.846 1085.5 407.539 1085.5 461.217C1085.5 520.672 1082.38 584.909 1060.07 642.754C1039.12 697.058 1000.46 747.957 921.2 781.601C835.46 817.995 697.217 833.894 534.612 838.946C427.971 842.26 318.435 840.897 213.973 839.597C188.646 839.282 163.617 838.97 139 838.73L139 461.217Z" stroke="black" stroke-width="160"/>
<path d="M133.426 437.655L133.426 433.32L132.958 429.009L97.1469 99.5959C189.869 99.1887 268.016 98.2214 335.187 97.39C438.58 96.1102 515.973 95.1522 580.501 97.0543C693.628 100.389 754.42 112.448 832.582 146.501C878.01 166.292 915.882 210.377 943.146 270.034C970.216 329.27 982 393.768 982 437.655C982 537.406 952.794 665.505 817.288 724.541C742.864 756.965 621.544 771.51 476.723 776.128C381.954 779.15 284.841 777.909 191.946 776.721C172.229 776.469 152.701 776.219 133.426 776.013L133.426 437.655Z" stroke="black" stroke-width="160"/>
<path d="M152.843 87.9999L1081.63 1334.5H80V87.9999H152.843Z" stroke="black" stroke-width="160"/>
<path d="M170.133 1290.59V288.46L929.375 1290.59H170.133Z" stroke="black" stroke-width="160"/>
<path d="M893.066 787.53C812.725 822.805 685.969 837.435 540.964 842.095C445.42 845.166 346.867 843.899 253.393 842.698C223.662 842.316 194.444 841.941 166 841.713L166 469.662L166 97.766C274.371 97.4967 364.131 96.4033 440.084 95.4781C545.051 94.1995 623.65 93.2421 688.563 95.2249C803.564 98.7377 867.605 111.43 950.399 147.782C1001.94 170.412 1034 218.46 1053.13 281.542C1072.26 344.605 1076 415.18 1076 469.662C1076 574.895 1045.47 720.613 893.066 787.53Z" stroke="#FFA800" stroke-width="100"/>
<path d="M824.138 728.334C751.661 760.651 636.702 774.234 504.195 778.559C416.987 781.406 327.143 780.233 241.793 779.118C216.055 778.782 190.725 778.452 166 778.238L166 436.5L166 94.9299C265.557 94.6505 346.093 93.5885 412.908 92.7075C502.122 91.531 566.873 90.6772 619.776 92.4396C713.558 95.5639 762.148 106.782 838.138 140.666C886.798 162.363 924.895 209.456 951.265 268.647C977.467 327.46 989 391.576 989 436.5C989 534.063 961.054 667.283 824.138 728.334Z" stroke="#FFFF00" stroke-width="100"/>
<path d="M155.162 94L1057.83 1325H85V94H155.162Z" stroke="#FFA800" stroke-width="100"/>
<path d="M155.162 94L1057.83 1325H85V94H155.162Z" stroke="#FFA800" stroke-width="100"/>
<path d="M165.226 1257V262.806L905.9 1257H165.226Z" stroke="#FFFF00" stroke-width="100"/>
</svg>
